<svg width="20" height="15" viewBox="0 0 20 15" fill="none" xmlns="http://www.w3.org/2000/svg">
<path d="M7 6.66667C7.79113 6.66667 8.56448 6.47117 9.22228 6.1049C9.88008 5.73863 10.3928 5.21803 10.6955 4.60895C10.9983 3.99986 11.0775 3.32964 10.9231 2.68303C10.7688 2.03643 10.3878 1.44249 9.82843 0.976312C9.26902 0.510137 8.55629 0.192668 7.78036 0.0640506C7.00444 -0.0645668 6.20017 0.00144428 5.46927 0.253736C4.73836 0.506028 4.11365 0.93327 3.67412 1.48143C3.2346 2.0296 3 2.67406 3 3.33333C3 4.21739 3.42143 5.06524 4.17157 5.69036C4.92172 6.31548 5.93913 6.66667 7 6.66667ZM7 1.66667C7.39556 1.66667 7.78224 1.76442 8.11114 1.94755C8.44004 2.13069 8.69638 2.39099 8.84776 2.69553C8.99913 3.00007 9.03874 3.33518 8.96157 3.65849C8.8844 3.98179 8.69392 4.27876 8.41421 4.51185C8.13451 4.74493 7.77814 4.90367 7.39018 4.96798C7.00222 5.03229 6.60009 4.99928 6.23463 4.87313C5.86918 4.74699 5.55682 4.53337 5.33706 4.25928C5.1173 3.9852 5 3.66297 5 3.33333C5 2.89131 5.21071 2.46738 5.58579 2.15482C5.96086 1.84226 6.46957 1.66667 7 1.66667ZM15 8.33333C15.5933 8.33333 16.1734 8.18671 16.6667 7.91201C17.1601 7.6373 17.5446 7.24686 17.7716 6.79004C17.9987 6.33323 18.0581 5.83056 17.9424 5.34561C17.8266 4.86066 17.5409 4.4152 17.1213 4.06557C16.7018 3.71594 16.1672 3.47783 15.5853 3.38137C15.0033 3.28491 14.4001 3.33442 13.8519 3.52364C13.3038 3.71286 12.8352 4.03329 12.5056 4.44441C12.1759 4.85553 12 5.33888 12 5.83333C12 6.49638 12.3161 7.13226 12.8787 7.6011C13.4413 8.06994 14.2044 8.33333 15 8.33333ZM15 5C15.1978 5 15.3911 5.04888 15.5556 5.14044C15.72 5.23201 15.8482 5.36216 15.9239 5.51443C15.9996 5.6667 16.0194 5.83426 15.9808 5.99591C15.9422 6.15756 15.847 6.30605 15.7071 6.42259C15.5673 6.53913 15.3891 6.6185 15.1951 6.65066C15.0011 6.68281 14.8 6.66631 14.6173 6.60323C14.4346 6.54016 14.2784 6.43335 14.1685 6.29631C14.0586 6.15927 14 5.99815 14 5.83333C14 5.61232 14.1054 5.40036 14.2929 5.24408C14.4804 5.0878 14.7348 5 15 5ZM15 9.16667C13.8918 9.16769 12.8155 9.47548 11.94 10.0417C10.9605 9.22863 9.71406 8.6755 8.35782 8.45202C7.00159 8.22855 5.59632 8.34474 4.31923 8.78595C3.04213 9.22715 1.95041 9.97361 1.18174 10.9312C0.413069 11.8888 0.00187019 13.0146 0 14.1667C0 14.3877 0.105357 14.5996 0.292893 14.7559C0.48043 14.9122 0.734784 15 1 15C1.26522 15 1.51957 14.9122 1.70711 14.7559C1.89464 14.5996 2 14.3877 2 14.1667C2 13.0616 2.52678 12.0018 3.46447 11.2204C4.40215 10.439 5.67392 10 7 10C8.32608 10 9.59785 10.439 10.5355 11.2204C11.4732 12.0018 12 13.0616 12 14.1667C12 14.3877 12.1054 14.5996 12.2929 14.7559C12.4804 14.9122 12.7348 15 13 15C13.2652 15 13.5196 14.9122 13.7071 14.7559C13.8946 14.5996 14 14.3877 14 14.1667C14.0024 13.1904 13.7064 12.2296 13.14 11.375C13.5819 11.084 14.1132 10.9025 14.6731 10.8514C15.233 10.8002 15.7989 10.8815 16.306 11.0858C16.813 11.2901 17.2408 11.6093 17.5404 12.0068C17.84 12.4042 17.9993 12.864 18 13.3333C18 13.5543 18.1054 13.7663 18.2929 13.9226C18.4804 14.0789 18.7348 14.1667 19 14.1667C19.2652 14.1667 19.5196 14.0789 19.7071 13.9226C19.8946 13.7663 20 13.5543 20 13.3333C20 12.2283 19.4732 11.1685 18.5355 10.3871C17.5979 9.60565 16.3261 9.16667 15 9.16667Z" fill="#D82D2D"/>
</svg>
