<svg width="20" height="20" viewBox="0 0 20 20" fill="none" xmlns="http://www.w3.org/2000/svg">
<path d="M16.6667 16.3649H3.33333C2.89131 16.3649 2.46738 16.5564 2.15482 16.8972C1.84226 17.2381 1.66667 17.7004 1.66667 18.1824C1.66667 18.6645 1.84226 19.1268 2.15482 19.4677C2.46738 19.8085 2.89131 20 3.33333 20H16.6667C17.1087 20 17.5326 19.8085 17.8452 19.4677C18.1577 19.1268 18.3333 18.6645 18.3333 18.1824C18.3333 17.7004 18.1577 17.2381 17.8452 16.8972C17.5326 16.5564 17.1087 16.3649 16.6667 16.3649ZM18.3333 4.55082C17.8913 4.55082 17.4674 4.74231 17.1548 5.08316C16.8423 5.42402 16.6667 5.88632 16.6667 6.36837C16.6668 6.49323 16.6786 6.61776 16.7017 6.74006L13.675 8.7221L11.1242 3.15857C11.372 2.91128 11.5456 2.58807 11.6221 2.23134C11.6985 1.8746 11.6744 1.50098 11.5528 1.15948C11.4311 0.817977 11.2177 0.524532 10.9405 0.317623C10.6632 0.110714 10.3351 0 9.99917 0C9.66322 0 9.33512 0.110714 9.05788 0.317623C8.78064 0.524532 8.56721 0.817977 8.44558 1.15948C8.32394 1.50098 8.29979 1.8746 8.37627 2.23134C8.45275 2.58807 8.6263 2.91128 8.87417 3.15857L6.325 8.7221L3.29833 6.74006C3.32144 6.61776 3.33317 6.49323 3.33333 6.36837C3.33333 6.00889 3.23559 5.65749 3.05245 5.35859C2.86931 5.0597 2.60902 4.82674 2.30447 4.68917C1.99993 4.5516 1.66482 4.51561 1.34152 4.58574C1.01822 4.65587 0.721244 4.82898 0.488156 5.08316C0.255069 5.33735 0.096334 5.66121 0.0320253 6.01378C-0.0322834 6.36635 0.000722135 6.7318 0.126868 7.06391C0.253014 7.39603 0.466635 7.67989 0.740717 7.87961C1.0148 8.07932 1.33703 8.18592 1.66667 8.18592C1.6975 8.18592 1.72583 8.17774 1.75583 8.17592L2.4 14.5473H17.6L18.2442 8.17592C18.2742 8.17592 18.3025 8.18592 18.3333 8.18592C18.7754 8.18592 19.1993 7.99443 19.5118 7.65357C19.8244 7.31271 20 6.85041 20 6.36837C20 5.88632 19.8244 5.42402 19.5118 5.08316C19.1993 4.74231 18.7754 4.55082 18.3333 4.55082Z" fill="black"/>
</svg>
